<svg id="Ribbon" xmlns="http://www.w3.org/2000/svg" xmlns:xlink="http://www.w3.org/1999/xlink" viewBox="0 0 26 34"><defs><style>.cls-1,.cls-2{fill:none;}.cls-1{clip-rule:evenodd;}.cls-3{clip-path:url(#clip-path);}.cls-4{fill:#f9cfc0;}.cls-5{clip-path:url(#clip-path-2);}.cls-6{isolation:isolate;}.cls-7{clip-path:url(#clip-path-3);}.cls-8{clip-path:url(#clip-path-4);}.cls-9{clip-path:url(#clip-path-5);}.cls-10{fill:#eaa183;}.cls-11{clip-path:url(#clip-path-6);}.cls-12{clip-path:url(#clip-path-7);}.cls-13{clip-path:url(#clip-path-9);}.cls-14{clip-path:url(#clip-path-10);}.cls-15{fill:#fff;opacity:0.2;}</style><clipPath id="clip-path" transform="translate(5 5)"><path class="cls-1" d="M2,1A1,1,0,0,1,3,0H13a1,1,0,0,1,1,1V23.39c0,.55-.38.77-.85.48L8.85,21.21a1.76,1.76,0,0,0-1.69,0L2.85,23.87c-.47.29-.85.08-.85-.48Z"/></clipPath><clipPath id="clip-path-2" transform="translate(5 5)"><rect class="cls-2" x="6" y="1" width="4" height="25"/></clipPath><clipPath id="clip-path-3" transform="translate(5 5)"><rect class="cls-2" x="2" width="12" height="25"/></clipPath><clipPath id="clip-path-4" transform="translate(5 5)"><path class="cls-1" d="M2,1A1,1,0,0,1,3,0H13a1,1,0,0,1,1,1V23.4c0,.55-.38.77-.85.48L8.85,21.22a1.76,1.76,0,0,0-1.69,0L2.85,23.88C2.38,24.16,2,24,2,23.4Z"/></clipPath><clipPath id="clip-path-5" transform="translate(5 5)"><rect class="cls-2" x="6" y="1" width="4" height="23"/></clipPath><clipPath id="clip-path-6" transform="translate(5 5)"><rect class="cls-2" width="16" height="1"/></clipPath><clipPath id="clip-path-7" transform="translate(5 5)"><polygon class="cls-1" points="2 1 14 13 14 1 2 1"/></clipPath><clipPath id="clip-path-9" transform="translate(5 5)"><path class="cls-1" d="M2,1A1,1,0,0,1,3,0H13a1,1,0,0,1,1,1v22.4c0,.55-.38.76-.83.46L8.83,21a1.65,1.65,0,0,0-1.67,0L2.83,23.86c-.46.3-.83.1-.83-.46Z"/></clipPath><clipPath id="clip-path-10" transform="translate(5 5)"><rect class="cls-2" x="1" y="1" width="13" height="12"/></clipPath></defs><title>Ribbon-Medal-Small</title><g class="cls-3"><rect class="cls-4" x="2" width="22" height="34"/></g><g class="cls-5"><g class="cls-6"><g class="cls-7"><g class="cls-8"><g class="cls-9"><rect class="cls-10" x="2" width="22" height="34"/></g></g></g></g></g><g class="cls-11"><rect class="cls-10" width="26" height="11"/></g><g class="cls-12"><g class="cls-6"><g class="cls-7"><g class="cls-13"><g class="cls-14"><rect class="cls-15" x="2" width="22" height="34"/></g></g></g></g></g></svg>