<svg id="Layer_1" data-name="Layer 1" xmlns="http://www.w3.org/2000/svg" xmlns:xlink="http://www.w3.org/1999/xlink" viewBox="0 0 26 33.47"><defs><style>.cls-1,.cls-2,.cls-3{fill:none;}.cls-1{clip-rule:evenodd;}.cls-3{fill-rule:evenodd;}.cls-4{clip-path:url(#clip-path);}.cls-5{fill:#fae7b9;}.cls-6{clip-path:url(#clip-path-2);}.cls-7{isolation:isolate;}.cls-8{clip-path:url(#clip-path-3);}.cls-9{clip-path:url(#clip-path-5);}.cls-10{fill:#ffbe30;}.cls-11{clip-path:url(#clip-path-6);}.cls-12{clip-path:url(#clip-path-7);}.cls-13{clip-path:url(#clip-path-8);}.cls-14{clip-path:url(#clip-path-9);}.cls-15{clip-path:url(#clip-path-11);}.cls-16{fill:#fff;opacity:0.2;}</style><clipPath id="clip-path" transform="translate(5 5)"><polygon class="cls-1" points="0 0 16 0 16 5 8 11 0 5 0 0"/></clipPath><clipPath id="clip-path-2" transform="translate(5 5)"><path class="cls-1" d="M3,1H5V14H3Zm8,0h2V14H11Z"/></clipPath><clipPath id="clip-path-3" transform="translate(5 5)"><rect class="cls-2" width="16" height="11"/></clipPath><clipPath id="clip-path-5" transform="translate(5 5)"><rect class="cls-2" x="3" y="1" width="10" height="13"/></clipPath><clipPath id="clip-path-6" transform="translate(5 5)"><rect class="cls-2" width="16" height="1"/></clipPath><clipPath id="clip-path-7" transform="translate(5 5)"><polygon class="cls-1" points="8 21 3.3 23.47 4.2 18.24 0.39 14.53 5.65 13.76 8 9 10.35 13.76 15.61 14.53 11.8 18.24 12.7 23.47 8 21"/></clipPath><clipPath id="clip-path-8" transform="translate(5 5)"><path class="cls-1" d="M1,9S18.13,28.13,18.56,26.56,18.56,5,18.56,5L1,6Z"/></clipPath><clipPath id="clip-path-9" transform="translate(5 5)"><rect class="cls-2" y="9" width="16" height="15"/></clipPath><clipPath id="clip-path-11" transform="translate(5 5)"><rect class="cls-2" x="1" y="4" width="15" height="20"/></clipPath></defs><title>Gold-Medal-Small</title><g class="cls-4"><rect class="cls-5" width="26" height="21"/></g><g class="cls-6"><g class="cls-7"><g class="cls-8"><g class="cls-4"><g class="cls-9"><rect class="cls-10" width="26" height="21"/></g></g></g></g></g><g class="cls-11"><rect class="cls-10" width="26" height="11"/></g><g class="cls-12"><rect class="cls-10" x="0.39" y="9" width="25.22" height="24.47"/></g><g class="cls-13"><g class="cls-7"><g class="cls-14"><g class="cls-12"><g class="cls-15"><rect class="cls-16" x="0.39" y="9" width="25.22" height="24.47"/></g></g></g></g></g></svg>