<svg id="Silver_medal" data-name="Silver medal" xmlns="http://www.w3.org/2000/svg" xmlns:xlink="http://www.w3.org/1999/xlink" viewBox="0 0 26 34"><defs><style>.cls-1,.cls-2,.cls-3{fill:none;}.cls-1{clip-rule:evenodd;}.cls-3{fill-rule:evenodd;}.cls-4{clip-path:url(#clip-path);}.cls-5{fill:#e2ebef;}.cls-6{clip-path:url(#clip-path-2);}.cls-7{isolation:isolate;}.cls-8{clip-path:url(#clip-path-3);}.cls-9{clip-path:url(#clip-path-5);}.cls-10{fill:#b4bfc8;}.cls-11{clip-path:url(#clip-path-6);}.cls-12{clip-path:url(#clip-path-7);}.cls-13{fill:#a2b1bc;}.cls-14{clip-path:url(#clip-path-8);}.cls-15{fill:#fff;opacity:0.15;}</style><clipPath id="clip-path" transform="translate(5 5)"><polygon class="cls-1" points="0 0 16 0 16 5 8 11 0 5 0 0"/></clipPath><clipPath id="clip-path-2" transform="translate(5 5)"><path class="cls-1" d="M3,1H5V14H3Zm8,0h2V14H11Z"/></clipPath><clipPath id="clip-path-3" transform="translate(5 5)"><rect class="cls-2" width="16" height="11"/></clipPath><clipPath id="clip-path-5" transform="translate(5 5)"><rect class="cls-2" x="3" y="1" width="10" height="13"/></clipPath><clipPath id="clip-path-6" transform="translate(5 5)"><rect class="cls-2" width="16" height="1"/></clipPath><clipPath id="clip-path-7" transform="translate(5 5)"><polygon class="cls-1" points="2 13.5 8 10 14 13.5 14 20.5 8 24 2 20.5 2 13.5"/></clipPath><clipPath id="clip-path-8" transform="translate(5 5)"><polygon class="cls-1" points="2 13.67 8 10 14 13.67 14 21 2 13.67"/></clipPath></defs><title>Silver-Medal-Small</title><g class="cls-4"><rect class="cls-5" width="26" height="21"/></g><g class="cls-6"><g class="cls-7"><g class="cls-8"><g class="cls-4"><g class="cls-9"><rect class="cls-10" width="26" height="21"/></g></g></g></g></g><g class="cls-11"><rect class="cls-10" width="26" height="11"/></g><g class="cls-12"><rect class="cls-13" x="2" y="10" width="22" height="24"/></g><g class="cls-14"><rect class="cls-15" x="2" y="10" width="22" height="21"/></g></svg>