<?xml version="1.0" encoding="UTF-8"?>
<svg width="18px" height="18px" viewBox="0 0 18 18" version="1.1" xmlns="http://www.w3.org/2000/svg" xmlns:xlink="http://www.w3.org/1999/xlink">
    <!-- Generator: Sketch 43.2 (39069) - http://www.bohemiancoding.com/sketch -->
    <title>Status-Icon-InProgress</title>
    <desc>Created with Sketch.</desc>
    <defs></defs>
    <g id="My-Jobs-List---v3" stroke="none" stroke-width="1" fill="none" fill-rule="evenodd">
        <g id="Jobs_v3" transform="translate(-570.000000, -611.000000)">
            <g id="Jobs" transform="translate(200.000000, 0.000000)">
                <g transform="translate(30.000000, 201.000000)" id="03">
                    <g transform="translate(0.000000, 254.000000)">
                        <g id="Status-Icon-InProgress" transform="translate(340.000000, 156.000000)">
                            <circle id="Oval" stroke="#7BC14D" stroke-width="2" cx="9" cy="9" r="8"></circle>
                            <g id="Icon" transform="translate(7.000000, 5.000000)" fill="#7BC14D">
                                <path d="M1,1 L2,1 L2,7 L1,7 L1,1 Z M0,0 L1,0 L1,8 L0,8 L0,0 Z M2,2 L3,2 L3,6 L2,6 L2,2 Z M3,3 L4,3 L4,5 L3,5 L3,3 Z" id="Combined-Shape"></path>
                                <path d="M4,3 L5,3 L5,4 L4,4 L4,3 Z M4,4 L5,4 L5,5 L4,5 L4,4 Z M3,5 L4,5 L4,6 L3,6 L3,5 Z M3,2 L4,2 L4,3 L3,3 L3,2 Z M2,1 L3,1 L3,2 L2,2 L2,1 Z M1,0 L2,0 L2,1 L1,1 L1,0 Z M2,6 L3,6 L3,7 L2,7 L2,6 Z M1,7 L2,7 L2,8 L1,8 L1,7 Z" id="Combined-Shape" opacity="0.5"></path>
                            </g>
                        </g>
                    </g>
                </g>
            </g>
        </g>
    </g>
</svg>